<svg width="32" height="32" viewBox="0 0 32 32" fill="none" xmlns="http://www.w3.org/2000/svg">
<g clip-path="url(#clip0)">
<path d="M3.91504 10.5769C4.09033 7.67871 6.49585 5.38232 9.43823 5.38232C11.811 5.38232 13.835 6.87622 14.6213 8.97461C16.6648 8.99927 18.314 10.6624 18.314 12.7117C18.314 14.7764 16.6401 16.4502 14.5754 16.4502C13.7112 16.4502 4.90552 16.4502 4.01758 16.4502C2.39502 16.4502 1.07959 15.1348 1.07959 13.5122C1.07959 11.9241 2.34009 10.6311 3.91504 10.5769Z" fill="#F0F5F7"/>
<path d="M18.314 12.7119C18.314 14.2056 17.4373 15.4951 16.1707 16.0935C16.3989 15.6099 16.5269 15.0691 16.5269 14.4985C16.5269 12.4492 14.8779 10.7859 12.8345 10.7615C12.0479 8.66284 10.0242 7.16919 7.65112 7.16919C6.58105 7.16919 5.58179 7.4729 4.73511 7.99927C5.71167 6.42822 7.45264 5.38257 9.43823 5.38257C11.8108 5.38257 13.835 6.87622 14.6211 8.97437C16.6648 8.99927 18.314 10.6626 18.314 12.7119Z" fill="#DDE9ED"/>
<path d="M28.8093 17.5698C28.6118 14.3086 25.905 11.7246 22.594 11.7246C19.9238 11.7246 17.6465 13.4055 16.7615 15.7666C14.4619 15.7944 12.6062 17.666 12.6062 19.9722C12.6062 22.2957 14.4897 24.179 16.813 24.179H28.6938C30.5198 24.179 31.9997 22.6987 31.9997 20.873C31.9997 19.0857 30.5815 17.6309 28.8093 17.5698Z" fill="#C4E1E8"/>
<path d="M32 20.8728C32 22.6987 30.5195 24.1792 28.6936 24.1792H28.4375C28.6773 23.7214 28.813 23.2004 28.813 22.6482C28.813 20.8611 27.3948 19.406 25.6223 19.3447C25.4251 16.0837 22.7178 13.4995 19.407 13.4995C18.9605 13.4995 18.5251 13.5464 18.1057 13.6357C19.2383 12.4578 20.8303 11.7246 22.594 11.7246C25.905 11.7246 28.6121 14.3083 28.8093 17.5701C30.5818 17.6306 32 19.0857 32 20.8728Z" fill="#A4D5DD"/>
<path d="M26.7908 14.0762C26.7908 18.1697 23.4724 21.488 19.3789 21.488C15.2852 21.488 11.9668 18.1697 11.9668 14.0762C11.9668 9.98242 15.2852 6.66406 19.3789 6.66406C23.4724 6.66406 26.7908 9.98242 26.7908 14.0762Z" fill="#F6CB43"/>
<path d="M19.3792 21.488C15.2854 21.488 11.967 18.1697 11.967 14.0759C11.967 10.4856 14.5198 7.49097 17.9097 6.81006C17.8137 7.28516 17.7637 7.77612 17.7637 8.27954C17.7637 12.3733 21.0818 15.6914 25.1755 15.6914C25.679 15.6914 26.1699 15.6414 26.645 15.5457C25.9631 18.9353 22.9688 21.488 19.3792 21.488Z" fill="#FAB03C"/>
<path d="M30.9719 14.5591H29.3755C29.1089 14.5591 28.8926 14.3428 28.8926 14.0762C28.8926 13.8093 29.1089 13.5933 29.3755 13.5933H30.9719C31.2388 13.5933 31.4548 13.8093 31.4548 14.0762C31.4548 14.3428 31.2388 14.5591 30.9719 14.5591Z" fill="#F8E98E"/>
<path d="M28.0366 9.56078C27.8699 9.56078 27.7075 9.47411 27.6182 9.31908C27.4846 9.08812 27.5637 8.79271 27.7949 8.65941L29.1775 7.86131C29.4085 7.72801 29.7036 7.80687 29.8369 8.03807C29.9705 8.26903 29.8914 8.5642 29.6602 8.6975L28.2776 9.49584C28.2017 9.53979 28.1187 9.56078 28.0366 9.56078Z" fill="#F8E98E"/>
<path d="M24.3767 5.90166C24.2949 5.90166 24.2119 5.8809 24.1357 5.83696C23.9048 5.70341 23.8257 5.40825 23.959 5.17729L24.7573 3.79472C24.8906 3.56376 25.1858 3.48442 25.417 3.61796C25.6479 3.75126 25.727 4.04667 25.5935 4.27763L24.7954 5.6602C24.706 5.81499 24.5437 5.90166 24.3767 5.90166Z" fill="#F8E98E"/>
<path d="M19.3789 4.56226C19.1121 4.56226 18.896 4.34595 18.896 4.07935V2.48291C18.896 2.21631 19.1121 2 19.3789 2C19.6455 2 19.8616 2.21631 19.8616 2.48291V4.07935C19.8618 4.34595 19.6455 4.56226 19.3789 4.56226Z" fill="#F8E98E"/>
<path d="M14.3809 5.9016C14.2141 5.9016 14.0518 5.81493 13.9624 5.66015L13.1641 4.27758C13.0308 4.04662 13.1099 3.75121 13.3408 3.61791C13.5718 3.48461 13.8672 3.56371 14.0005 3.79467L14.7986 5.17724C14.9321 5.4082 14.853 5.70361 14.6218 5.83691C14.5459 5.88085 14.4629 5.9016 14.3809 5.9016Z" fill="#F8E98E"/>
<path d="M16.2031 17.5698C16.0056 14.3086 13.2988 11.7246 9.98779 11.7246C7.31763 11.7246 5.04028 13.4055 4.15527 15.7666C1.85571 15.7944 0 17.666 0 19.9722C0 22.2954 1.88354 24.179 4.20679 24.179H16.0876C17.9136 24.179 19.3938 22.6987 19.3938 20.8728C19.3936 19.0857 17.9753 17.6309 16.2031 17.5698Z" fill="#C4E1E8"/>
<path d="M19.3938 20.8728C19.3938 22.6987 17.9133 24.1792 16.0874 24.1792H15.8313C16.071 23.7214 16.2068 23.2004 16.2068 22.6482C16.2068 20.8611 14.7886 19.406 13.0161 19.3447C12.8188 16.0837 10.1116 13.4995 6.80078 13.4995C6.35425 13.4995 5.91895 13.5464 5.49951 13.6357C6.63208 12.4578 8.22412 11.7246 9.98779 11.7246C13.2988 11.7246 16.0059 14.3083 16.2034 17.5701C17.9756 17.6306 19.3938 19.0857 19.3938 20.8728Z" fill="#A4D5DD"/>
<path d="M26.1604 23.4246C25.9632 20.1633 23.2561 17.5793 19.9453 17.5793C17.2749 17.5793 14.9976 19.2603 14.1126 21.6213C11.8133 21.6492 9.95755 23.521 9.95755 25.8269C9.95755 28.1504 11.8409 30.0337 14.1643 30.0337H26.0452C27.8709 30.0337 29.3511 28.5535 29.3511 26.7278C29.3511 24.9404 27.9329 23.4856 26.1604 23.4246Z" fill="#F0F5F7"/>
<path d="M29.3513 26.7275C29.3513 28.5535 27.8708 30.0339 26.0449 30.0339H25.7888C26.0286 29.5762 26.1643 29.0552 26.1643 28.5029C26.1643 26.7158 24.7461 25.2607 22.9736 25.1995C22.7764 21.9385 20.0691 19.3542 16.7581 19.3542C16.3115 19.3542 15.8762 19.4011 15.4568 19.4905C16.5896 18.3127 18.1816 17.5793 19.9453 17.5793C23.2563 17.5793 25.9634 20.1631 26.1606 23.4248C27.9331 23.4854 29.3513 24.9404 29.3513 26.7275Z" fill="#DDE9ED"/>
<path d="M24.512 23.0586C24.2939 23.0586 24.0962 22.9096 24.043 22.6884C23.9871 22.456 23.9106 22.2268 23.8157 22.0073C23.7097 21.7624 23.8223 21.4782 24.0671 21.3723C24.312 21.2663 24.5962 21.3791 24.7021 21.6237C24.8191 21.8943 24.9131 22.1765 24.9819 22.4626C25.0444 22.7221 24.8845 22.9826 24.6252 23.0451C24.5874 23.0542 24.5493 23.0586 24.512 23.0586Z" fill="#F0F5F7"/>
<path d="M23.3357 20.9111C23.2087 20.9111 23.082 20.8613 22.9873 20.7625C22.1831 19.9246 21.1028 19.4631 19.9453 19.4631C19.6787 19.4631 19.4624 19.2471 19.4624 18.9802C19.4624 18.7136 19.6787 18.4976 19.9453 18.4976C21.3682 18.4976 22.696 19.0645 23.6841 20.094C23.8686 20.2861 23.8625 20.592 23.6702 20.7766C23.5764 20.8665 23.456 20.9111 23.3357 20.9111Z" fill="#F0F5F7"/>
<path d="M4.92969 25.3086C5.0708 22.9771 7.0061 21.1299 9.37305 21.1299C11.2822 21.1299 12.9102 22.3315 13.543 24.0195C15.187 24.0396 16.5137 25.3774 16.5137 27.0261C16.5137 28.6873 15.1672 30.0337 13.5061 30.0337C12.8108 30.0337 5.72681 30.0337 5.01221 30.0337C3.70703 30.0337 2.64868 28.9756 2.64868 27.6702C2.64868 26.3926 3.6626 25.3523 4.92969 25.3086Z" fill="#F0F5F7"/>
<path d="M16.5137 27.0264C16.5137 28.6731 15.1895 30.0107 13.5476 30.0332C14.0398 29.4973 14.3401 28.7834 14.3401 27.9993C14.3401 26.3508 13.0137 25.0127 11.3691 24.9927C10.7366 23.3049 9.10864 22.1028 7.19922 22.1028C6.97363 22.1028 6.7522 22.1199 6.5354 22.1523C7.30566 21.5137 8.29443 21.1301 9.37305 21.1301C11.2822 21.1301 12.9102 22.3315 13.5427 24.0198C15.1873 24.0398 16.5137 25.3774 16.5137 27.0264Z" fill="#DDE9ED"/>
</g>
<defs>
<clipPath id="clip0">
<rect width="32" height="32" fill="white"/>
</clipPath>
</defs>
</svg>
